<?xml version="1.0" standalone="no"?>
<svg xmlns="http://www.w3.org/2000/svg" height="1920pt" preserveAspectRatio="xMidYMid meet" viewBox="0 0 1920 1920" width="1920pt">
  <path d="m9350 18322c0-5 14-21 31-38 78-74 120-228 144-524 3-41 11-106 16-143 6-38 9-70 6-73s-45 6-93 20c-155 45-265 66-270 52-3-7 35-97 84-202 49-104 103-221 120-260l30-71-71 18c-39 11-81 19-95 19-22 0-23-2-17-42 36-226 100-413 170-496l25-30-62 14c-34 8-128 36-209 63-82 27-150 46-154 43-9-9-5-332 5-447 10-101 26-180 46-229 7-18 4-19-42-13-27 4-77 21-112 38s-66 28-70 24c-14-14-5-398 10-452 8-29 12-53 9-53-33 0-146 108-224 213-27 37-55 66-60 64-24-8-93-240-103-347l-6-65-56 53c-31 28-59 52-63 52-10 0-16-20-33-125-37-221-44-430-16-524 5-19 7-37 5-40-18-17-205 112-323 223-38 36-74 66-79 66-10 0-76-141-131-280-103-260-146-532-108-678 7-29 9-52 4-52-54 0-168 126-282 313-9 15-22 25-27 21-6-3-42-54-81-113-131-199-245-461-278-641-7-36-12-116-12-177 0-62-2-113-4-113s-23 12-47 27c-50 31-131 113-188 189-23 29-45 54-49 54-5 0-37-49-73-108-212-352-320-681-316-957l1-109-48 2c-157 9-318 63-376 128-9 11-21 32-27 47-13 33-35 31-39-4-2-13-19-103-38-199-62-310-75-413-81-620-3-113-1-213 5-237 8-36 7-43-5-43-27 0-160 58-228 99-72 44-85 48-85 29 0-7-7-88-15-179-33-388-29-753 10-899 8-30 15-56 15-57 0-2-22-3-48-3-65 0-140 23-235 72-60 32-81 38-90 29s-12-81-11-259c1-217 3-256 21-322 12-41 20-76 19-77s-26 7-56 18c-30 10-59 20-65 22-20 5-15-42 20-167 39-143 102-285 158-359l37-47-27 6c-16 4-73 22-128 41-153 53-147 54-163-47-16-104-10-286 12-355 8-27 29-71 45-97l30-47-37 2-37 2 2-70c4-149 73-343 151-424l39-41h-34c-18 0-61 9-94 20-34 12-64 19-67 16-13-14 89-246 140-319l21-29-34 7c-19 4-68 18-109 31s-78 24-82 24c-16 0-7-51 27-169 44-153 116-315 189-424 58-87 162-193 217-220 30-14 30-15 7-20-12-3-86-11-163-18-77-6-144-15-148-19-11-9 55-174 100-247 55-91 111-161 155-193 46-33 48-32-69-30-53 1-73-2-73-11 0-23 194-203 258-239 106-59 105-59 28-57-43 1-71-2-73-9-6-16 103-122 172-166 32-21 81-46 107-56 26-9 48-20 48-23 0-10-86-19-186-19-56 0-95-4-100-11-3-6 12-48 34-92 155-312 392-515 650-556l47-8-48-22c-27-13-78-27-113-33-40-7-64-16-64-24 0-19 151-149 247-211 97-63 226-120 296-129 27-4 45-10 40-14-10-10-123-38-186-46-26-4-50-10-52-14-7-12 15-34 105-106 180-144 362-247 496-280l69-18-33-13c-18-7-66-19-108-26-41-7-76-17-77-22-5-22 206-105 338-135l80-17-60-27c-33-15-72-30-88-33-57-12-44-30 78-109 163-106 300-162 402-165 65-3 60-14-13-30-30-7-57-16-60-20-6-10 77-108 162-191 91-90 165-144 244-182l65-30-84-26c-47-15-86-31-89-38-9-27 220-171 338-212 79-27 79-27 42-34-20-3-56-6-79-6-24 0-43-5-43-11 0-20 55-82 123-139 80-68 163-114 237-133l52-14-53-19c-31-11-54-25-54-33 0-21 155-143 233-184 37-20 89-41 116-48l48-12-33-14c-19-8-67-17-106-20-50-4-73-10-73-19 0-24 214-200 316-260 25-15 70-37 100-49l55-22-53-22c-29-11-77-24-107-28-61-9-76-28-36-43 42-16 329-67 477-85 76-9 217-17 314-18l177-2 23-114c125-608 303-1009 520-1173 70-52 123-60 174-26 43 29 63 81 49 131-6 24-31 54-79 97-39 34-89 89-112 123-89 130-190 379-258 633-32 118-91 376-87 380 1 1 81 16 177 33 298 51 521 116 528 153 2 12-8 22-31 32-66 27-50 33 106 39 158 5 235 21 278 56l23 19-41 20c-46 24-103 69-103 83 0 5 15 9 34 9 96 0 226 45 287 99 45 40 49 71 9 71-36 0-152 32-143 40 4 4 33 16 63 25 123 40 234 102 298 165 19 20 29 37 24 42s-35 12-67 15l-58 6 131 43c212 69 335 144 373 228 28 62 25 83-13 91-18 4-50 12-71 18l-38 11 89 32c229 83 369 168 443 268 48 65 42 77-63 127l-91 44 71 17c118 27 233 67 306 106 68 36 94 62 62 62-20 0-98 31-92 37 2 2 39 13 82 24 86 21 164 55 164 71 0 5-25 32-55 60-30 27-55 53-55 57s38 12 84 18c84 11 151 36 142 52-3 5-20 11-38 15l-33 7 52 18c96 35 189 115 233 201 23 46 20 61-11 53-20-5-139 43-139 57 0 3 30 13 66 23 149 39 317 138 412 242 58 63 127 178 119 199-3 7-20 16-38 20-40 8-126 71-168 125-30 37-31 42-14 47 306 109 529 274 617 456 55 114 55 113-1 132-26 9-83 36-126 59l-78 43 84 51c278 170 495 394 556 573 23 69 25 66-61 73-31 3-99 18-152 33l-96 28 128 130c227 232 358 424 411 601 11 39 22 87 23 109l3 38-65 3c-39 2-113 18-185 40-66 20-121 38-122 39s39 29 90 61c128 84 271 228 320 324 39 78 50 138 21 127-42-16-70-17-151-6-76 10-272 51-311 65-9 3 5 38 44 117 66 132 110 204 166 271 23 28 37 52 32 57s-35 15-67 22l-57 13 61 70c76 87 169 225 193 288 18 47 18 48-3 65-49 40-52 225-5 390 15 51 24 96 21 99-4 3-19 1-34-6-45-18-159-31-276-31h-108l20 28c203 267 298 442 318 588l6 47-34-7c-19-5-81-11-137-15l-104-6 6 30c3 17 19 95 36 175 34 158 54 440 32 440-6 0-26-9-45-20s-74-29-123-40c-84-18-303-50-344-50-16 0-8 21 55 146 41 80 92 192 114 247 39 101 69 222 58 233-3 4-30-5-59-19-68-33-123-45-115-26 89 206 117 312 124 465 4 78 2 123-5 128-5 3-46-14-90-39s-82-45-85-45c-2 0-7 57-10 128-5 130-28 255-51 288-13 17-17 14-62-32-82-83-198-151-323-188-50-15-53-15-48 2 56 171 77 330 84 632 5 218-6 434-22 460-5 8-18 2-39-18-45-43-97-66-216-96-89-22-291-57-297-52-1 1 3 51 9 111 14 154 3 465-21 585-29 141-80 278-100 266-5-3-11-23-15-45-10-66-94-124-241-166-31-9-58-15-60-13-3 2 0 69 5 148 28 404-59 742-227 890-48 42-73 50-73 24 0-9-15-31-33-49-39-39-138-65-250-65h-75l-5 278c-7 377-35 541-121 711-30 57-101 141-121 141-7 0-15-18-19-40-12-74-102-149-209-174-27-6-28-5-23 21 15 77 96 715 92 722-3 5-39 1-78-9-174-45-498-96-498-80 0 4 9 15 21 26 51 46 111 207 134 364 25 161 17 191-34 136-26-27-98-60-153-70l-37-7 22 48c33 71 30 231-6 368-27 106-74 244-87 258-4 5-51-17-104-47-53-31-98-56-101-56-2 0 1 16 7 36 31 115-65 340-216 501-125 134-254 214-399 248-66 16-207 20-207 7z" transform="matrix(.1 0 0 -.1 0 1920)" fill="#1a6840BB" stroke="none" stroke-width="2" vector-effect="non-scaling-stroke"/>
</svg>
