<?xml version="1.0" standalone="no"?>
<svg xmlns="http://www.w3.org/2000/svg" height="1868pt" preserveAspectRatio="xMidYMid meet" viewBox="0 0 1920 1868" width="1920pt">
  <path d="m4560 18608c0-71-19-529-41-978-11-228-23-583-26-787-3-205-10-373-14-373s-27 22-51 50c-24 27-46 50-50 50-24 0-88-309-114-552-18-171-14-505 6-591 7-27 10-51 7-54-8-8-48 17-104 65-37 31-54 40-57 31-44-127-92-386-122-659-22-193-30-663-15-841 11-130 40-327 57-388 6-21 5-22-12-13-10 6-50 36-88 66-38 31-71 54-74 51-11-10-32-225-38-385-47-1252 571-3576 1719-6460 151-379 289-711 413-997 8-18 12-33 9-33s-37 64-76 143c-502 1003-1245 2325-1664 2958-213 322-479 679-507 679-11 0-66-76-74-103-5-17-11-9-30 41-63 169-204 397-372 607-185 229-575 606-593 573-4-7-10-38-13-68-15-123-13-123-70-16-138 258-389 544-851 968-145 133-261 233-263 226-1-8 9-40 23-72s24-60 22-62-24 20-48 48c-78 94-466 483-794 797-176 168-360 344-409 391-103 99-103 106 2-145 323-779 650-1431 829-1651 37-46 41-58 16-50-10 2-37 7-60 11l-42 7 14-59c92-392 431-894 859-1271 33-28 53-52 45-52-7 0-54 7-103 16-48 8-90 13-93 11-8-9 66-186 127-306 157-309 396-631 665-896 61-60 141-134 178-164s66-56 64-57c-1-1-57 7-124 20l-121 22 30-36c196-226 715-760 1046-1076 631-603 1417-1259 1944-1624 56-39 98-70 95-70s-147 67-319 149c-373 177-877 402-1119 499-155 62-437 159-511 176l-28 6 21-52c11-29 31-72 44-95 13-24 22-43 20-43s-28 14-57 31c-72 43-387 200-511 255-320 143-752 289-790 267-8-5 33-84 59-114 22-25 16-31-15-15-60 32-237 98-349 131-150 44-350 87-562 119-233 35-226 35-222 11 2-11 15-35 28-52 16-21 20-33 12-33-28 0-229 50-323 80-240 77-690 258-890 357-38 19-65 31-60 25 6-6 172-111 370-234 564-351 566-352 547-360-9-4-32-7-49-7-18-1-33-4-33-8 0-13 207-156 350-243 252-154 715-373 930-441l102-32-61-22c-33-12-72-30-87-40-34-22-42-17 169-102 329-132 770-262 990-293l89-12-49-28c-26-15-61-41-76-58-25-26-26-30-10-35 554-159 1116-239 1875-267 155-6 284-13 287-15 2-3-25-5-60-5s-154-7-264-15c-489-38-882-101-1155-185-114-35-116-41-31-85 29-14 40-25 31-28-8-2-67-16-130-32-205-49-473-146-719-261-77-36-98-50-85-55 62-22 483-67 707-76 154-6 184-11 157-28-6-4-19-24-30-45l-20-39 58-7c74-9 275 10 427 41 96 19 288 73 437 122 14 4 12-7-14-56-17-33-28-64-25-67 4-4 55-1 114 5 367 41 827 183 1195 367 117 59 118 59 118 43 0-10-405-687-1328-2219-217-360-582-965-810-1345-275-458-447-734-512-820-115-154-122-167-114-200 7-29 48-65 75-65 55 0 68 18 154 210 42 93 167 313 472 830 83 140 213 363 290 495 442 758 762 1306 923 1580 350 595 495 842 671 1144 98 167 180 298 183 290 2-8 7-66 10-129 16-350 113-796 238-1105 23-55 42-102 44-104 7-8 38 25 65 67l27 42 17-92c39-213 119-481 191-638 39-84 92-170 105-170 4 0 20 21 35 46l27 46 31-52c118-198 308-479 431-635l48-60-7 135c-10 241-57 543-119 767l-33 122 27-20c15-11 44-26 64-35l36-15-6 38c-49 290-225 786-455 1283-40 85-76 163-81 173-6 9-8 17-5 17s24-35 47-78c236-430 598-963 891-1314 120-142 346-388 358-388 10 0 30 95 30 143 1 37 2 39 12 22 86-151 524-593 838-844 41-33 81-61 89-61 11 0 13 15 9 73-3 39-9 81-14 92-4 11 33-18 82-65 190-181 550-444 828-604 112-65 376-199 381-194 2 2-5 23-16 47-25 56-24 65 4 47 12-8 193-107 402-221s422-232 473-261c52-30 96-54 99-54 2 0-53 44-124 97-403 304-779 638-883 783l-22 31 29-8c32-9 81-9 89 0 8 7-223 312-335 442-119 138-248 264-366 358-55 44-101 80-103 82-1 1 34 0 78-3 45-3 80-1 80 5 0 14-106 130-200 218-231 217-670 551-895 681l-50 29 97 6c54 3 101 9 105 13 9 9-148 163-292 287-243 208-743 592-1170 898-110 79-204 148-210 153-5 6 53-21 130-60 244-121 724-331 1050-459 665-261 1345-490 2015-678 167-47 747-195 764-195 6 0-4 15-21 33-27 28-97 121-116 154-4 6 32-4 80-24 269-108 696-198 1068-224 224-15 585 9 585 39 0 4-27 41-60 82-32 41-58 75-57 77 2 1 60-18 130-42 351-123 811-197 1107-180 119 7 303 35 378 57l44 13-36 47c-20 26-36 49-36 51s30-3 68-10c93-20 648-29 902-14 354 20 1154 91 1166 104 6 5-741 248-1056 342-348 105-630 184-688 192-55 7-65 23-15 23 51 0 113 11 113 20 0 10-701 243-873 289-295 80-499 113-699 114h-136l56 38c32 22 70 50 86 63l28 24-83 32c-297 115-670 206-978 240-125 14-397 15-463 2-27-5-48-8-48-7s16 29 35 61 32 61 28 64c-19 17-286 62-518 89-630 74-1295 96-2585 87-520-3-1021-8-1115-10-183-4-180-3 55 19 1156 113 2645 326 3670 526 1844 359 3145 779 3847 1241 60 39 125 84 146 101l38 30-88 36c-135 56-133 54-56 75 392 104 1095 519 1501 884 45 41 82 78 82 82 0 5-28 18-62 29-35 12-76 30-93 41-26 17-27 20-10 25 81 26 174 65 251 105 230 122 518 321 679 473 88 83 89 76-5 92-41 6-71 24-53 31 34 14 564 323 788 459 354 215 857 519 985 595 58 34 96 59 85 55-237-78-661-182-1456-359-360-80-670-150-689-156-33-9-30-6 45 71 46 46 71 79 60 76-20-6-210-35-535-82-453-65-725-129-837-195-19-11-37-20-39-20-3 0 26 35 65 77s71 80 71 84c0 13-193 22-340 15-450-20-904-120-1238-272-40-18-72-30-70-26s36 50 76 103c39 53 72 98 72 101s-84-12-187-33c-692-143-1411-364-2023-622-217-92-737-354-1075-543-1110-619-2501-1536-3850-2541-207-155-197-145 140 147 1032 891 2003 1787 2805 2590 532 532 809 827 1116 1190 149 177 408 519 400 528-2 1-43-2-92-8-49-5-118-10-153-10h-64l84 88c418 435 829 1010 1143 1599 84 156 216 430 216 447 0 3-21-4-47-16-90-39-208-86-211-84-1 2 20 50 47 108 216 461 475 1115 594 1499 79 253 167 612 167 679 0 21 0 21-32-3-45-34-168-96-206-103l-32-6 25 59c116 287 238 732 400 1461 53 238 105 459 115 490l19 57-121-123c-66-68-117-115-114-105s23 94 45 187c111 460 280 972 485 1471l17 40-23-26c-13-14-75-88-138-165-186-226-340-395-569-627-189-192-438-427-490-463-13-10-8 15 25 114 67 205 69 199-33 101-48-46-198-181-333-299-504-440-861-781-1045-999-79-93-79-93-87-65-10 36-12 250-2 265 34 56-210-156-406-351-199-198-374-391-601-660-159-188-442-544-559-703-45-61-66-83-72-73-4 7-10 58-14 112-12 168-6 167-120 13-325-435-656-1028-882-1579-30-74-88-234-127-354l-73-220-25 50c-13 27-41 90-62 139-20 50-38 92-40 94-13 12-211-444-330-759-380-1006-861-2766-1330-4870-57-256-109-493-116-528-6-34-14-61-16-58-3 2 14 132 36 288 169 1180 290 2421 353 3628 18 335 18 1604 0 1835-55 717-201 1500-408 2182-37 120-72 235-77 256-6 20-14 37-17 37s-27-52-54-115-51-114-52-112c-2 1-8 52-14 112-44 456-246 1046-485 1420-37 58-38 58-51 34-7-13-23-53-35-89-30-89-39-95-39-25 0 134-67 372-220 785-56 151-123 333-148 403s-48 124-52 120-17-47-31-95c-13-49-26-88-30-88s-10 17-14 38c-3 20-49 186-102 367-332 1152-385 1347-438 1610-15 71-28 132-31 134-2 2-4-16-4-41zm1907-12730c-3-7-5-2-5 12s2 19 5 13c2-7 2-19 0-25z" transform="matrix(.1 0 0 -.1 0 1868)" fill="#FF4400A6" stroke="none" stroke-width="2" vector-effect="non-scaling-stroke"/>
</svg>
