<?xml version="1.0" standalone="no"?>
<svg xmlns="http://www.w3.org/2000/svg" height="1920pt" preserveAspectRatio="xMidYMid meet" viewBox="0 0 1771 1920" width="1771pt">
  <path d="m8770 19181c-59-13-109-42-146-84-66-78-64-36-64-1121v-980l-767 766c-423 422-780 776-795 788-125 97-336 42-404-104-31-66-32-162-3-226 15-35 238-263 989-1015l970-971v-1069-1070l-817 817c-569 568-831 823-861 838-57 28-154 29-215 2-65-29-153-119-167-173-18-65-7-160 23-211 14-24 135-151 269-283s504-499 823-815 664-658 768-759l187-183v-266-267l-727-410c-400-225-797-450-882-498-86-49-194-110-241-137-47-26-170-96-274-154-103-59-198-112-210-117-18-9-54 8-231 109-141 80-211 126-213 138-3 19-59 229-177 664-35 129-116 429-180 665-64 237-145 536-180 665s-94 345-130 479c-78 288-91 313-190 362-61 30-70 32-140 26-91-8-131-24-177-69-79-80-95-176-55-328 14-52 53-196 86-320s90-337 126-475c36-137 93-349 125-470 160-598 220-828 218-830s-43 21-93 50c-130 75-345 200-452 262-51 29-137 79-190 110-54 31-181 104-283 163s-246 142-320 185c-181 105-307 178-409 237-47 27-87 51-89 53-5 5-29 88-91 325-27 102-111 415-186 695-75 281-148 553-162 605-13 52-46 176-73 275s-81 302-120 450c-40 149-83 288-95 311-30 51-83 92-144 111-53 17-169 10-212-12-77-40-135-125-146-213-5-49-3-58 177-732 32-118 78-291 103-385 25-93 70-263 101-378 31-114 81-300 111-415 31-114 58-215 61-224 4-14-7-10-53 15-32 19-417 239-855 490-510 293-813 460-842 467-92 20-192-23-257-113-87-119-113-214-85-311 25-86 78-132 292-253 183-103 1293-742 1418-815l70-41-45-13c-24-7-156-42-294-79-279-74-560-149-860-230-110-29-292-78-405-108-113-31-276-74-363-98-176-47-232-76-272-139-39-61-50-126-37-207 14-84 49-137 121-180 96-58 128-56 446 32 88 24 273 73 410 110 138 37 340 91 450 120 348 93 603 162 835 224 124 33 327 87 453 121l227 61 148-85c81-46 185-107 232-134s216-124 375-216c303-175 439-254 590-342 50-29 178-103 285-164 107-62 199-116 203-120s-97-35-225-69c-128-35-325-87-438-118-113-30-295-79-405-108-110-30-301-81-425-114-624-166-727-194-750-206-40-21-87-76-111-129-19-43-21-60-15-129 8-92 29-140 82-187 43-37 81-55 139-64 43-7 104 7 640 151 154 41 390 104 525 140s344 92 465 124c121 33 303 81 405 108 422 112 754 203 762 207 5 3 126-63 271-147 144-84 290-168 325-188l62-35-2-1264-3-1265-320-183-320-184-140 39c-77 21-277 76-445 121s-386 103-485 130-324 88-500 135c-176 48-428 116-560 152-631 170-607 164-662 159-63-5-146-48-179-91-33-44-44-80-50-164-9-119 32-205 119-254 23-14 146-52 272-86 127-35 302-82 390-106s378-103 645-175 574-156 682-186c109-30 204-54 213-54 8 0 15-4 15-8 0-5-413-247-917-539l-918-530-90 24c-49 13-281 75-515 138-663 177-972 260-1275 341-154 42-345 93-425 114s-179 48-220 59c-106 30-175 28-241-7-69-36-114-95-129-169-24-113 3-207 78-275 50-45 68-51 432-148 168-45 386-103 485-130 297-81 646-175 890-240 336-90 338-91 329-99-5-5-385-226-844-491s-848-494-864-508c-44-41-76-118-76-183 0-46 7-71 35-125 20-38 51-90 70-115 71-98 212-130 326-76 30 14 419 237 864 495 446 258 812 468 813 467 2-2-26-115-63-252-84-315-157-586-235-878-34-126-83-311-110-410-165-613-167-625-135-702 43-102 114-151 231-159 170-12 254 59 304 256 12 47 43 166 70 265 26 99 75 281 109 405 33 124 119 446 191 715 72 270 158 591 191 715s74 275 90 336l30 111 917 531c504 291 918 527 920 522 2-4-27-117-63-251-162-595-198-728-260-959-37-135-86-317-110-405-164-601-167-617-161-658 14-87 69-167 140-205 43-22 142-33 198-21 65 14 132 60 162 111 15 26 55 154 100 323 41 154 98 366 126 470 47 177 101 378 205 770 24 88 80 297 125 465 73 272 145 543 186 699 8 30 17 58 21 61 5 4 211 121 458 260 248 139 462 259 476 267 25 15 47 3 947-518l922-533v-482c0-472 0-483-20-489-31-10-1992-1989-2017-2037-33-59-32-155 2-223 45-90 61-109 110-135 70-36 180-36 247 0 32 17 304 280 848 820 441 437 805 796 808 798 4 1 6-476 4-1060l-2-1063-955-955c-796-797-958-963-976-1005-57-127-4-297 111-359 44-24 67-30 120-30 132-2 82-44 940 805l775 767 5-1007 5-1006 22-41c50-93 115-124 262-124 169 0 244 37 298 148l28 57 3 987 2 987 771-774c590-592 781-779 817-796 71-34 160-32 235 5 32 15 61 36 65 45s19 34 34 56c53 77 56 184 8 273-11 21-452 471-980 1002l-959 965-1 1065v1065l818-816c909-908 860-865 986-857 69 4 150 40 169 74 68 122 71 129 71 195 0 52-5 76-24 112-17 31-348 370-1027 1053l-1003 1007v472 473l38 22c20 12 222 128 447 258 226 129 466 267 535 307s265 152 435 250c171 98 348 200 394 227l83 48 202-116c110-64 292-168 404-232 164-95 202-121 202-138 0-24 10-62 280-1074 33-124 87-326 120-450s86-324 119-445c32-121 84-317 115-435 82-309 84-316 119-363 19-25 54-54 87-70 52-27 60-28 144-23 70 5 98 11 132 31 51 30 88 75 109 134 21 61 19 112-11 221-71 266-301 1123-334 1250-58 218-126 476-176 659-25 90-43 167-42 171 2 5 1615-921 1826-1049 12-7 36-90 178-621 119-450 145-546 219-820 42-157 94-350 115-430 139-526 193-721 212-764 46-99 152-154 271-141 34 4 76 13 93 20 47 19 100 71 125 121 39 82 33 123-96 629-112 440-339 1333-385 1518-13 48-20 90-17 93 2 3 78-37 168-89s396-227 679-389 575-329 647-371c235-136 265-146 358-127 81 17 137 60 191 146 58 94 77 154 69 219-8 61-48 137-90 169-17 13-348 207-736 431-387 224-764 441-836 484-73 42-133 79-133 82s24 11 53 19c28 7 174 45 322 85 149 40 392 105 540 145 149 39 342 91 430 115s282 76 430 115c149 39 292 78 319 87 64 20 128 80 156 146 19 44 22 63 17 129-7 91-29 139-85 190-47 43-99 62-167 62-47-1-126-21-825-209-135-36-319-86-410-110s-293-78-450-120-366-98-465-125c-99-26-260-69-357-95l-178-47-921 533c-778 450-918 534-898 540 13 4 146 40 294 79 149 39 351 93 450 120 247 66 582 156 880 235 655 175 645 171 700 259 28 46 30 57 30 140 0 50-6 107-13 126-16 46-76 108-127 131-80 37-129 29-613-100-246-66-762-203-1147-306-898-239-1062-283-1104-299-34-13-36-12-290 134-141 81-278 161-306 177l-50 29v1199 1199l329 188c224 128 338 188 359 188 16 0 70-11 121-24 203-54 562-150 751-201 110-29 295-78 410-109 116-31 280-74 365-97s202-54 260-69 260-69 449-120c396-106 429-109 517-54 161 99 161 356 1 448-26 15-290 90-707 201-1068 285-1096 293-1300 346-107 29-200 54-207 58-6 3 37 34 95 67 59 34 204 117 322 186 118 68 305 176 415 240 110 63 245 141 300 173 189 110 410 237 555 321l145 83 105-29c58-15 209-56 335-90 127-34 320-85 430-115 268-72 679-182 955-256 124-33 315-84 425-114 346-93 366-97 421-92 90 9 175 70 208 147 43 106 26 237-42 312-60 67-19 54-902 288-80 21-273 73-430 115s-408 110-558 150c-151 41-276 76-278 78-3 3 374 224 838 492s858 501 876 519c67 63 98 171 72 252-16 48-73 146-114 192-61 69-179 101-265 71-29-10-209-112-901-511-129-74-359-206-510-293s-285-165-297-173c-14-8-23-10-23-4s126 483 280 1060c194 728 280 1066 280 1101 0 137-95 235-242 247-83 7-131-3-190-43-78-52-72-36-278-808-26-99-73-277-105-395-95-354-170-635-218-815-25-93-80-297-121-453-42-156-76-285-76-287 0-1-57-35-127-75-71-41-168-97-218-126-98-56-347-200-685-394-175-100-550-316-779-448l-44-26 7 30c10 43 129 487 196 734 32 118 115 427 185 685 69 259 145 535 167 615 49 172 54 251 20 316-27 53-77 103-121 121-50 21-162 28-216 13-49-14-127-76-150-120-8-15-39-121-70-236s-85-315-120-444-89-329-120-445c-31-115-85-316-120-445s-89-329-120-445c-31-115-79-291-105-390-27-99-57-211-68-250-11-38-17-83-15-100 4-30 1-31-213-150-120-66-222-122-227-124-10-4-45 14-172 89-106 62-138 80-1220 705-511 296-939 542-952 548l-23 10v276 276l768 765c422 421 871 869 999 995 261 259 277 281 277 395 0 88-36 155-115 214-101 76-217 82-306 17-21-16-393-382-828-813l-790-785-3 1066-2 1066 969 970c1053 1054 996 991 994 1106-3 146-124 260-277 260-124 0-85 34-923-804l-763-762v976c0 1072 2 1036-61 1112-50 60-118 89-219 93-47 2-101 0-120-5zm-220-8080v-989l-297 172c-164 95-388 225-498 288-110 64-363 210-562 325l-363 210 218 125c565 324 1134 651 1302 749 102 59 188 107 193 108 4 1 7-444 7-988zm698 921c66-38 126-73 787-457 182-105 448-260 593-344 144-84 260-157 257-161-3-5-58-39-123-76-100-57-362-209-912-529-383-223-540-314-585-340-27-15-60-35-72-43l-23-14v1001c0 550 2 1001 5 1001s36-17 73-38zm-968-2481c0-4-46-33-103-65-56-33-142-83-192-112-49-29-337-195-640-369-302-174-567-328-587-341l-38-24v909 909l780-451c429-248 780-453 780-456zm2710 3v-836l-42 24c-24 14-131 75-238 137-107 63-294 171-415 241-247 142-350 202-545 315-74 43-152 88-172 99-21 12-38 23-38 26 1 3 78 49 173 103 95 53 417 239 717 412s548 314 553 315c4 0 7-376 7-836zm-962-989c259-148 471-272 471-275s-77-48-172-101-316-179-492-279-398-226-492-280l-173-98v763 763l193-111c107-62 406-233 665-382zm-1480-669-3-353-140 82c-1092 640-1074 629-1072 632 2 1 275 159 607 352l605 350 3-355c1-194 1-513 0-708z" transform="matrix(.1 0 0 -.1 0 1920)" fill="#fffef9BB" stroke="none" stroke-width="2" vector-effect="non-scaling-stroke"/>
</svg>
