<?xml version="1.0" encoding="utf-8"?>
<!-- Generator: Adobe Illustrator 21.0.2, SVG Export Plug-In . SVG Version: 6.00 Build 0)  -->
<svg version="1.1" id="Layer_1" xmlns="http://www.w3.org/2000/svg" xmlns:xlink="http://www.w3.org/1999/xlink" x="0px" y="0px"
	 viewBox="0 0 296 209" enable-background="new 0 0 296 209" xml:space="preserve">
<line opacity="0.2" fill="none" stroke="#E55625" stroke-width="0.9176" stroke-miterlimit="10" enable-background="new    " x1="253.526" y1="31.2" x2="296" y2="31.2"/>
<line opacity="0.2" fill="none" stroke="#E55625" stroke-width="0.9176" stroke-miterlimit="10" enable-background="new    " x1="0" y1="28.966" x2="79.221" y2="28.966"/>
<line opacity="0.2" fill="none" stroke="#E55625" stroke-width="0.9176" stroke-miterlimit="10" enable-background="new    " x1="221.635" y1="51.205" x2="296" y2="51.205"/>
<line opacity="0.2" fill="none" stroke="#E55625" stroke-width="0.9176" stroke-miterlimit="10" enable-background="new    " x1="22.461" y1="51.205" x2="88.67" y2="51.205"/>
<line opacity="0.2" fill="none" stroke="#E55625" stroke-width="0.9176" stroke-miterlimit="10" enable-background="new    " x1="212.963" y1="72.084" x2="296" y2="72.084"/>
<line opacity="0.2" fill="none" stroke="#E55625" stroke-width="0.9176" stroke-miterlimit="10" enable-background="new    " x1="37.571" y1="71.628" x2="87.555" y2="71.628"/>
<line opacity="0.2" fill="none" stroke="#E55625" stroke-width="0.9176" stroke-miterlimit="10" enable-background="new    " x1="221.635" y1="92.571" x2="296" y2="92.571"/>
<line opacity="0.2" fill="none" stroke="#E55625" stroke-width="0.9176" stroke-miterlimit="10" enable-background="new    " x1="0" y1="92.116" x2="58.456" y2="92.116"/>
<line opacity="0.2" fill="none" stroke="#E55625" stroke-width="0.9176" stroke-miterlimit="10" enable-background="new    " x1="221.635" y1="133.347" x2="296" y2="133.347"/>
<line opacity="0.2" fill="none" stroke="#E55625" stroke-width="0.9176" stroke-miterlimit="10" enable-background="new    " x1="277.114" y1="153.596" x2="296.331" y2="153.596"/>
<line opacity="0.2" fill="none" stroke="#E55625" stroke-width="0.9176" stroke-miterlimit="10" enable-background="new    " x1="260.925" y1="178.938" x2="298.106" y2="178.938"/>
<line opacity="0.2" fill="none" stroke="#E55625" stroke-width="0.9176" stroke-miterlimit="10" enable-background="new    " x1="0" y1="133.347" x2="79.49" y2="133.347"/>
<line opacity="0.2" fill="none" stroke="#E55625" stroke-width="0.9176" stroke-miterlimit="10" enable-background="new    " x1="22.644" y1="153.579" x2="0" y2="153.579"/>
<line opacity="0.2" fill="none" stroke="#E55625" stroke-width="0.9176" stroke-miterlimit="10" enable-background="new    " x1="0" y1="9.909" x2="296" y2="9.909"/>
<line opacity="0.2" fill="none" stroke="#E55625" stroke-width="0.9176" stroke-miterlimit="10" enable-background="new    " x1="221.635" y1="113.692" x2="296" y2="113.692"/>
<line opacity="0.2" fill="none" stroke="#E55625" stroke-width="0.9176" stroke-miterlimit="10" enable-background="new    " x1="0" y1="112.988" x2="69.025" y2="112.988"/>
<line opacity="0.2" fill="none" stroke="#E55625" stroke-width="0.9176" stroke-miterlimit="10" enable-background="new    " x1="0" y1="178.714" x2="22.644" y2="178.714"/>
<line opacity="0.2" fill="none" stroke="#E55625" stroke-width="0.9176" stroke-miterlimit="10" enable-background="new    " x1="38.083" y1="141.334" x2="38.083" y2="0"/>
<line opacity="0.2" fill="none" stroke="#E55625" stroke-width="0.9176" stroke-miterlimit="10" enable-background="new    " x1="7.205" y1="209" x2="7.205" y2="-0.287"/>
<line opacity="0.2" fill="none" stroke="#E55625" stroke-width="0.9176" stroke-miterlimit="10" enable-background="new    " x1="58.458" y1="134.287" x2="58.458" y2="-0.235"/>
<line opacity="0.2" fill="none" stroke="#E55625" stroke-width="0.9176" stroke-miterlimit="10" enable-background="new    " x1="78.833" y1="141.049" x2="78.833" y2="0"/>
<line opacity="0.2" fill="none" stroke="#E55625" stroke-width="0.9176" stroke-miterlimit="10" enable-background="new    " x1="99.209" y1="10.65" x2="99.209" y2="0"/>
<line opacity="0.2" fill="none" stroke="#E55625" stroke-width="0.9176" stroke-miterlimit="10" enable-background="new    " x1="96.061" y1="209" x2="96.061" y2="195.238"/>
<line opacity="0.2" fill="none" stroke="#E55625" stroke-width="0.9176" stroke-miterlimit="10" enable-background="new    " x1="38.083" y1="208.068" x2="38.083" y2="177.818"/>
<line opacity="0.2" fill="none" stroke="#E55625" stroke-width="0.9176" stroke-miterlimit="10" enable-background="new    " x1="139.963" y1="15.154" x2="139.963" y2="-1.062"/>
<line opacity="0.2" fill="none" stroke="#E55625" stroke-width="0.9176" stroke-miterlimit="10" enable-background="new    " x1="160.338" y1="9.909" x2="160.338" y2="0"/>
<line opacity="0.2" fill="none" stroke="#E55625" stroke-width="0.9176" stroke-miterlimit="10" enable-background="new    " x1="163.381" y1="209" x2="163.381" y2="201.187"/>
<line opacity="0.2" fill="none" stroke="#E55625" stroke-width="0.9176" stroke-miterlimit="10" enable-background="new    " x1="185.82" y1="210.645" x2="185.82" y2="194.049"/>
<line opacity="0.2" fill="none" stroke="#E55625" stroke-width="0.9176" stroke-miterlimit="10" enable-background="new    " x1="208.259" y1="209" x2="208.259" y2="201.187"/>
<line opacity="0.2" fill="none" stroke="#E55625" stroke-width="0.9176" stroke-miterlimit="10" enable-background="new    " x1="230.937" y1="133.347" x2="230.937" y2="-11.904"/>
<line opacity="0.2" fill="none" stroke="#E55625" stroke-width="0.9176" stroke-miterlimit="10" enable-background="new    " x1="253.376" y1="124.358" x2="253.376" y2="0"/>
<line opacity="0.2" fill="none" stroke="#E55625" stroke-width="0.9176" stroke-miterlimit="10" enable-background="new    " x1="275.443" y1="81.989" x2="275.443" y2="-2.952"/>
<path fill="#8D7966" d="M80.782,11.469c0.865-0.865,0.859-2.256,0-3.122c-0.862-0.862-2.256-0.862-3.125,0
	c-0.859,0.865-0.859,2.262,0,3.122C78.523,12.332,79.92,12.332,80.782,11.469L80.782,11.469L80.782,11.469z"/>
<path fill="#8D7966" d="M162.006,11.469c0.865-0.865,0.859-2.256,0-3.122c-0.862-0.862-2.256-0.862-3.125,0
	c-0.859,0.865-0.859,2.262,0,3.122C159.747,12.332,161.144,12.332,162.006,11.469L162.006,11.469L162.006,11.469z"/>
<path fill="#8D7966" d="M263.011,180.499c0.865-0.865,0.859-2.256,0-3.122c-0.862-0.862-2.256-0.862-3.125,0
	c-0.859,0.865-0.859,2.262,0,3.122C260.752,181.362,262.149,181.362,263.011,180.499L263.011,180.499L263.011,180.499z"/>
<path fill="#E55625" d="M278.317,130.495c-1.583-1.59-4.155-1.59-5.756,0c-1.586,1.598-1.586,4.176,0,5.759
	c1.592,1.596,4.173,1.596,5.756,0C279.921,134.659,279.91,132.093,278.317,130.495z M275.442,135.416l-2.037-2.04l2.037-2.034
	l2.04,2.034L275.442,135.416z"/>
<path fill="#E55625" d="M61.332,89.234c-1.583-1.59-4.155-1.59-5.756,0c-1.587,1.598-1.587,4.176,0,5.759
	c1.592,1.596,4.173,1.596,5.756,0C62.936,93.398,62.924,90.832,61.332,89.234z M58.456,94.155l-2.037-2.04l2.037-2.034l2.04,2.034
	L58.456,94.155z"/>
<ellipse transform="matrix(0.7067 -0.7075 0.7075 0.7067 -68.7497 60.0726)" fill="#7F8C8D" cx="38.081" cy="112.958" rx="0.912" ry="0.912"/>
<ellipse transform="matrix(0.7067 -0.7075 0.7075 0.7067 -71.2387 94.8989)" fill="#7F8C8D" cx="78.842" cy="133.373" rx="0.912" ry="0.912"/>
<ellipse transform="matrix(0.7067 -0.7075 0.7075 0.7067 22.0859 73.0979)" fill="#7F8C8D" cx="99.209" cy="9.91" rx="0.912" ry="0.912"/>
<ellipse transform="matrix(0.7067 -0.7075 0.7075 0.7067 -110.4308 125.4185)" fill="#7F8C8D" cx="96.057" cy="195.904" rx="0.912" ry="0.912"/>
<path fill="#E55625" d="M39.306,70.094c-0.793-0.793-2.082-0.793-2.878,0c-0.796,0.799-0.796,2.088,0,2.881
	c0.793,0.799,2.085,0.799,2.878,0C40.106,72.176,40.097,70.894,39.306,70.094z"/>
<path fill="#E55625" d="M39.522,199.744c-0.793-0.793-2.082-0.793-2.878,0c-0.796,0.799-0.796,2.088,0,2.881
	c0.793,0.799,2.085,0.799,2.878,0C40.322,201.826,40.313,200.544,39.522,199.744z"/>
<path fill="#E55625" d="M214.402,70.641c-0.793-0.793-2.082-0.793-2.878,0c-0.796,0.799-0.796,2.088,0,2.881
	c0.793,0.799,2.085,0.799,2.878,0C215.201,72.723,215.193,71.44,214.402,70.641z"/>
<path fill="#E55625" d="M276.883,80.547c-0.793-0.793-2.082-0.793-2.878,0c-0.796,0.799-0.796,2.088,0,2.881
	c0.793,0.799,2.085,0.799,2.878,0C277.682,82.629,277.674,81.346,276.883,80.547z"/>
<path fill="#E55625" d="M8.645,131.599c-0.793-0.793-2.082-0.793-2.878,0c-0.796,0.799-0.796,2.088,0,2.881
	c0.793,0.799,2.085,0.799,2.878,0C9.444,133.681,9.435,132.398,8.645,131.599z"/>
<path fill="#E55625" d="M254.816,91.445c-0.793-0.793-2.082-0.793-2.878,0c-0.796,0.799-0.796,2.088,0,2.881
	c0.793,0.799,2.085,0.799,2.878,0C255.615,93.527,255.607,92.244,254.816,91.445z"/>
<polygon fill="#8F9090" points="253.38,6.281 249.744,9.898 253.38,13.537 257.009,9.898 "/>
<path fill="#ECAA20" d="M58.536,26.44c-1.95,0.006-3.521,1.583-3.521,3.521l7.03-0.006C62.057,28.018,60.483,26.453,58.536,26.44z"
	/>
<path fill="#ECAA20" d="M22.65,49.252c-1.95,0.006-3.521,1.583-3.521,3.521l7.03-0.006C26.171,50.829,24.597,49.263,22.65,49.252z"
	/>
<path fill="#ECAA20" d="M275.449,48.159c-1.95,0.006-3.521,1.583-3.521,3.521l7.03-0.006
	C278.971,49.737,277.396,48.172,275.449,48.159z"/>
<line opacity="0.2" fill="none" stroke="#E55625" stroke-width="0.9176" stroke-miterlimit="10" enable-background="new    " x1="0" y1="200.865" x2="288.802" y2="200.865"/>
<path fill="#ECAA20" d="M163.387,199.104c-1.95,0.006-3.521,1.583-3.521,3.521l7.03-0.006
	C166.908,200.681,165.334,199.116,163.387,199.104z"/>
<polygon fill="#077581" points="21.471,182.009 21.474,179.93 19.386,179.93 19.386,177.95 21.474,177.95 21.474,175.868 
	23.444,175.868 23.444,177.95 25.536,177.95 25.536,179.93 23.444,179.93 23.447,182.009 "/>
<polygon fill="#077581" points="229.947,117.031 229.95,114.951 227.862,114.951 227.862,112.972 229.95,112.972 229.95,110.89 
	231.921,110.89 231.921,112.972 234.012,112.972 234.012,114.951 231.921,114.951 231.924,117.031 "/>
<path fill="#03979C" d="M203.097,44.109c0-13.437-11.337-24.27-25.193-24.27c-1.26,0-2.603,0.084-3.863,0.252
	c-10.833,1.512-18.055,9.322-22.086,15.284c-4.031-5.962-11.253-13.772-22.086-15.284c-1.26-0.168-2.603-0.252-3.863-0.252
	c-13.94,0-25.193,10.917-25.193,24.27c0,13.437,11.337,24.354,25.193,24.354c1.26,0,2.603-0.084,3.863-0.252
	c10.833-1.512,18.055-9.322,22.086-15.284c4.031,5.962,11.253,13.772,22.086,15.284c1.26,0.168,2.603,0.252,3.863,0.252
	C191.844,68.379,203.097,57.546,203.097,44.109z M128.693,59.645c-0.924,0.168-1.764,0.168-2.687,0.168
	c-9.154,0-16.628-7.054-16.628-15.704s7.474-15.704,16.628-15.704c0.84,0,1.764,0.084,2.687,0.168
	c10.161,1.428,16.376,11.505,18.475,15.536C145.069,48.14,138.854,58.133,128.693,59.645z M156.742,44.109
	c2.099-4.031,8.314-14.024,18.475-15.536c0.924-0.084,1.764-0.168,2.687-0.168c9.154,0,16.628,7.054,16.628,15.704
	s-7.474,15.704-16.544,15.704c-0.84,0-1.764-0.084-2.687-0.168C165.055,58.133,158.841,48.14,156.742,44.109z"/>
<rect x="119.035" y="41.758" fill="#03979C" width="15.116" height="4.871"/>
<polygon fill="#03979C" points="179.584,46.628 184.706,46.628 184.706,41.758 179.584,41.758 179.584,36.635 174.713,36.635 
	174.713,41.758 169.59,41.758 169.59,46.628 174.713,46.628 174.713,51.751 179.584,51.751 "/>
<path fill="#03979C" d="M107.95,75.685l-4.367,14.024h3.527l0.756-2.855h4.031l0.756,2.855h3.695l-4.451-14.108h-3.947
	C107.95,75.601,107.95,75.685,107.95,75.685z M108.538,84.167l1.26-5.123l1.428,5.123H108.538z"/>
<path fill="#03979C" d="M129.617,80.388c0-2.687-1.428-4.703-5.375-4.703h-5.711v14.108h3.527v-4.451h1.764l2.099,4.451h4.115
	l-2.771-5.123C128.861,83.747,129.617,82.235,129.617,80.388z M123.906,82.487h-1.848V78.54h1.764c1.596,0,2.099,0.672,2.099,1.848
	C125.922,81.899,125.166,82.487,123.906,82.487z"/>
<path fill="#03979C" d="M137.091,75.685h-4.619v14.108h4.619c5.962,0,6.97-3.863,6.97-7.138
	C144.061,78.12,142.297,75.685,137.091,75.685z M137.259,86.854h-1.344V78.54h1.008c3.107,0,3.359,1.512,3.359,4.199
	C140.366,85.09,140.114,86.854,137.259,86.854z"/>
<path fill="#03979C" d="M154.39,84.251c0,2.183-0.588,2.855-2.183,2.855c-1.344,0-2.183-0.504-2.183-2.855v-8.566h-3.527v9.238
	c0,4.283,3.107,5.039,5.459,5.039c2.519,0,5.627-0.924,5.627-5.039v-9.238h-3.359v8.566H154.39z"/>
<polygon fill="#03979C" points="160.856,78.54 164.468,78.54 164.468,86.854 160.856,86.854 160.856,89.709 171.69,89.709 
	171.69,86.854 167.995,86.854 167.995,78.54 171.69,78.54 171.69,75.685 160.856,75.685 "/>
<polygon fill="#03979C" points="182.859,84.083 178.324,75.685 174.545,75.685 174.545,89.709 177.82,89.709 177.82,80.724 
	182.607,89.709 186.134,89.709 186.134,75.685 182.859,75.685 "/>
<path fill="#03979C" d="M194.364,75.433c-4.283,0-5.878,3.107-5.878,7.39c0,4.703,1.848,7.138,5.878,7.138
	c4.535,0,6.046-3.191,6.046-7.306C200.41,77.28,198.311,75.433,194.364,75.433z M194.364,87.106c-2.015,0-2.183-1.428-2.183-4.283
	c0-3.443,0.336-4.535,2.183-4.535c2.015,0,2.351,0.924,2.351,4.367C196.715,85.93,196.379,87.106,194.364,87.106z"/>
<path fill="#03979C" d="M204.945,20.763c-0.168-0.42-0.42-0.84-0.756-1.092c-0.336-0.336-0.672-0.588-1.092-0.756
	s-0.924-0.252-1.344-0.252c-0.504,0-0.924,0.084-1.344,0.252c-0.42,0.168-0.756,0.42-1.092,0.756s-0.588,0.672-0.756,1.092
	c-0.168,0.42-0.252,0.924-0.252,1.428s0.084,0.924,0.252,1.428c0.168,0.42,0.42,0.84,0.756,1.176s0.672,0.588,1.092,0.756
	c0.42,0.168,0.924,0.252,1.344,0.252c0.504,0,0.924-0.084,1.344-0.252c0.42-0.168,0.756-0.42,1.092-0.756s0.588-0.672,0.756-1.176
	c0.168-0.42,0.252-0.924,0.252-1.428S205.113,21.183,204.945,20.763z M204.189,23.283c-0.168,0.336-0.336,0.588-0.588,0.84
	s-0.504,0.42-0.84,0.588s-0.672,0.252-1.008,0.252s-0.756-0.084-1.008-0.252c-0.336-0.168-0.588-0.336-0.84-0.588
	c-0.252-0.252-0.42-0.504-0.588-0.84s-0.252-0.672-0.252-1.092s0.084-0.756,0.252-1.092s0.336-0.672,0.588-0.924
	c0.252-0.252,0.504-0.42,0.84-0.588s0.672-0.252,1.008-0.252s0.672,0.084,1.008,0.252s0.588,0.336,0.84,0.588
	c0.252,0.252,0.42,0.504,0.588,0.924c0.168,0.336,0.252,0.672,0.252,1.092C204.357,22.527,204.273,22.947,204.189,23.283z"/>
<path fill="#03979C" d="M202.426,22.527c0.168-0.084,0.336-0.252,0.42-0.42s0.168-0.336,0.168-0.588c0-0.336-0.084-0.588-0.336-0.84
	s-0.672-0.336-1.176-0.336c-0.252,0-0.42,0-0.588,0s-0.336,0-0.504,0v3.527h0.924v-1.176h0.336l0.588,1.176h1.008L202.426,22.527z
	 M201.586,22.023c-0.084,0-0.168,0-0.252,0v-0.924c0.084,0,0.168,0,0.252,0c0.42,0,0.588,0.168,0.588,0.504
	C202.174,21.855,202.006,22.023,201.586,22.023z"/>
<path fill="#03979C" d="M132.388,114.315c0-2.267-1.008-3.107-3.443-3.107h-2.939v6.046h3.107
	C130.96,117.338,132.388,116.582,132.388,114.315z"/>
<polygon fill="#03979C" points="155.986,119.27 161.108,119.27 158.505,111.628 "/>
<path fill="#03979C" d="M103.583,101.466v31.576h96.659v-31.576H103.583z M115.844,125.064c-4.199,0-7.054-2.267-7.054-7.81
	c0-5.123,2.939-7.978,7.222-7.978c1.512,0,3.107,0.336,4.031,0.924l-0.672,1.764c-0.84-0.672-2.267-1.008-3.443-1.008
	c-3.443,0-5.207,2.267-5.207,6.214c0,4.115,1.68,6.214,5.207,6.214c1.512,0,3.107-0.42,3.863-0.924l0.504,1.596
	C119.119,124.812,117.524,125.064,115.844,125.064z M132.892,124.896l-3.275-5.962h-3.611v5.962h-1.848v-15.284h4.955
	c3.863,0,5.291,1.596,5.291,4.703c0,2.099-1.092,3.611-2.855,4.283l3.611,6.298C135.16,124.896,132.892,124.896,132.892,124.896z
	 M149.267,111.208h-8.482v4.955h7.642v1.596h-7.642v5.375h8.482v1.68h-10.329V109.53h10.329V111.208z M162.956,124.896l-1.344-4.031
	h-6.13l-1.344,4.031h-1.931l5.291-15.284h2.015l5.375,15.284C164.888,124.896,162.956,124.896,162.956,124.896z M179.5,111.208
	h-5.291v13.604h-1.932v-13.604h-5.291v-1.68h12.429v1.68C179.415,111.208,179.5,111.208,179.5,111.208z M193.272,111.208h-8.482
	v4.955h7.642v1.596h-7.642v5.375h8.482v1.68h-10.329V109.53h10.329V111.208z"/>
<polygon fill="#8F9090" points="288.806,197.559 285.17,201.176 288.806,204.815 292.434,201.176 "/>
</svg>
