<?xml version="1.0" encoding="utf-8"?>
<!-- Generator: Adobe Illustrator 20.1.0, SVG Export Plug-In . SVG Version: 6.00 Build 0)  -->
<svg version="1.1" id="Livello_1" xmlns="http://www.w3.org/2000/svg" xmlns:xlink="http://www.w3.org/1999/xlink" x="0px" y="0px"
	 width="296px" height="209px" viewBox="0 0 296 209" enable-background="new 0 0 296 209" xml:space="preserve">
<g>
	<line fill="none" stroke="#8E9090" stroke-width="0.3548" stroke-miterlimit="10" x1="40.956" y1="209" x2="40.956" y2="170.171"/>
	<line fill="none" stroke="#8E9090" stroke-width="0.3548" stroke-miterlimit="10" x1="60.308" y1="209" x2="60.308" y2="170.171"/>
	<line fill="none" stroke="#8E9090" stroke-width="0.3548" stroke-miterlimit="10" x1="79.661" y1="209" x2="79.661" y2="170.171"/>
	<line fill="none" stroke="#8E9090" stroke-width="0.3548" stroke-miterlimit="10" x1="99.013" y1="209" x2="99.013" y2="170.171"/>
	
		<line fill="none" stroke="#8E9090" stroke-width="0.3548" stroke-miterlimit="10" x1="118.365" y1="209" x2="118.365" y2="170.171"/>
	
		<line fill="none" stroke="#8E9090" stroke-width="0.3548" stroke-miterlimit="10" x1="137.718" y1="209" x2="137.718" y2="170.171"/>
	<line fill="none" stroke="#8E9090" stroke-width="0.3548" stroke-miterlimit="10" x1="157.07" y1="209" x2="157.07" y2="170.171"/>
	
		<line fill="none" stroke="#8E9090" stroke-width="0.3548" stroke-miterlimit="10" x1="176.422" y1="209" x2="176.422" y2="170.171"/>
	
		<line fill="none" stroke="#8E9090" stroke-width="0.3548" stroke-miterlimit="10" x1="195.775" y1="209" x2="195.775" y2="170.171"/>
	
		<line fill="none" stroke="#8E9090" stroke-width="0.3548" stroke-miterlimit="10" x1="215.127" y1="209" x2="215.127" y2="170.171"/>
	
		<line fill="none" stroke="#8E9090" stroke-width="0.3548" stroke-miterlimit="10" x1="234.479" y1="209" x2="234.479" y2="170.171"/>
	
		<line fill="none" stroke="#8E9090" stroke-width="0.3548" stroke-miterlimit="10" x1="253.832" y1="209" x2="253.832" y2="170.171"/>
	<g>
		<g>
			
				<line fill="none" stroke="#8C7965" stroke-width="0.3723" stroke-miterlimit="10" x1="50.632" y1="162.666" x2="50.632" y2="182.68"/>
			
				<line fill="none" stroke="#8C7965" stroke-width="0.3723" stroke-miterlimit="10" x1="70.095" y1="162.666" x2="70.095" y2="182.578"/>
			
				<line fill="none" stroke="#8C7965" stroke-width="0.3723" stroke-miterlimit="10" x1="31.28" y1="162.666" x2="31.28" y2="182.578"/>
			
				<line fill="none" stroke="#8C7965" stroke-width="0.3723" stroke-miterlimit="10" x1="89.557" y1="162.666" x2="89.557" y2="182.708"/>
			
				<line fill="none" stroke="#8C7965" stroke-width="0.3723" stroke-miterlimit="10" x1="109.02" y1="162.666" x2="109.02" y2="182.578"/>
			
				<line fill="none" stroke="#8C7965" stroke-width="0.3723" stroke-miterlimit="10" x1="128.482" y1="162.666" x2="128.482" y2="182.697"/>
			
				<line fill="none" stroke="#8C7965" stroke-width="0.3723" stroke-miterlimit="10" x1="147.945" y1="162.666" x2="147.945" y2="182.702"/>
			
				<line fill="none" stroke="#8C7965" stroke-width="0.3723" stroke-miterlimit="10" x1="167.407" y1="162.666" x2="167.407" y2="182.578"/>
			
				<line fill="none" stroke="#8C7965" stroke-width="0.3723" stroke-miterlimit="10" x1="186.87" y1="162.666" x2="186.87" y2="182.713"/>
			
				<line fill="none" stroke="#8C7965" stroke-width="0.3723" stroke-miterlimit="10" x1="206.333" y1="162.666" x2="206.333" y2="182.662"/>
			
				<line fill="none" stroke="#8C7965" stroke-width="0.3723" stroke-miterlimit="10" x1="225.795" y1="162.666" x2="225.795" y2="182.719"/>
			
				<line fill="none" stroke="#8C7965" stroke-width="0.3723" stroke-miterlimit="10" x1="245.258" y1="162.666" x2="245.258" y2="182.578"/>
			
				<line fill="none" stroke="#8C7965" stroke-width="0.3723" stroke-miterlimit="10" x1="264.72" y1="162.666" x2="264.72" y2="182.686"/>
		</g>
		<g>
			
				<line fill="none" stroke="#E75300" stroke-width="0.1955" stroke-miterlimit="10" x1="24.333" y1="143.345" x2="0" y2="143.345"/>
			
				<line fill="none" stroke="#E75300" stroke-width="0.1955" stroke-miterlimit="10" x1="24.333" y1="123.922" x2="0" y2="123.922"/>
			<line fill="none" stroke="#E75300" stroke-width="0.1955" stroke-miterlimit="10" x1="24.333" y1="104.5" x2="0" y2="104.5"/>
			<line fill="none" stroke="#E75300" stroke-width="0.1955" stroke-miterlimit="10" x1="24.333" y1="85.077" x2="0" y2="85.077"/>
			<line fill="none" stroke="#E75300" stroke-width="0.1955" stroke-miterlimit="10" x1="24.333" y1="65.655" x2="0" y2="65.655"/>
			<line fill="none" stroke="#E75300" stroke-width="0.1955" stroke-miterlimit="10" x1="24.333" y1="46.232" x2="0" y2="46.232"/>
			<g>
				
					<line fill="none" stroke="#E75300" stroke-width="0.1955" stroke-miterlimit="10" x1="296" y1="143.345" x2="271.667" y2="143.345"/>
				
					<line fill="none" stroke="#E75300" stroke-width="0.1955" stroke-miterlimit="10" x1="296" y1="123.922" x2="271.667" y2="123.922"/>
				
					<line fill="none" stroke="#E75300" stroke-width="0.1955" stroke-miterlimit="10" x1="296" y1="104.5" x2="271.667" y2="104.5"/>
				
					<line fill="none" stroke="#E75300" stroke-width="0.1955" stroke-miterlimit="10" x1="296" y1="85.077" x2="271.667" y2="85.077"/>
				
					<line fill="none" stroke="#E75300" stroke-width="0.1955" stroke-miterlimit="10" x1="296" y1="65.655" x2="271.667" y2="65.655"/>
				
					<line fill="none" stroke="#E75300" stroke-width="0.1955" stroke-miterlimit="10" x1="296" y1="46.232" x2="271.667" y2="46.232"/>
			</g>
		</g>
		<g>
			<line fill="none" stroke="#8C7965" stroke-width="0.3723" stroke-miterlimit="10" x1="50.632" y1="0" x2="50.632" y2="26.828"/>
			<line fill="none" stroke="#8C7965" stroke-width="0.3723" stroke-miterlimit="10" x1="70.095" y1="0" x2="70.095" y2="26.769"/>
			<line fill="none" stroke="#8C7965" stroke-width="0.3723" stroke-miterlimit="10" x1="31.28" y1="0" x2="31.28" y2="26.769"/>
			<line fill="none" stroke="#8C7965" stroke-width="0.3723" stroke-miterlimit="10" x1="89.557" y1="0" x2="89.557" y2="26.844"/>
			<line fill="none" stroke="#8C7965" stroke-width="0.3723" stroke-miterlimit="10" x1="109.02" y1="0" x2="109.02" y2="26.769"/>
			
				<line fill="none" stroke="#8C7965" stroke-width="0.3723" stroke-miterlimit="10" x1="128.482" y1="0" x2="128.482" y2="26.837"/>
			<line fill="none" stroke="#8C7965" stroke-width="0.3723" stroke-miterlimit="10" x1="147.945" y1="0" x2="147.945" y2="26.84"/>
			
				<line fill="none" stroke="#8C7965" stroke-width="0.3723" stroke-miterlimit="10" x1="167.407" y1="0" x2="167.407" y2="26.769"/>
			<line fill="none" stroke="#8C7965" stroke-width="0.3723" stroke-miterlimit="10" x1="186.87" y1="0" x2="186.87" y2="26.847"/>
			
				<line fill="none" stroke="#8C7965" stroke-width="0.3723" stroke-miterlimit="10" x1="206.333" y1="0" x2="206.333" y2="26.818"/>
			<line fill="none" stroke="#8C7965" stroke-width="0.3723" stroke-miterlimit="10" x1="225.795" y1="0" x2="225.795" y2="26.85"/>
			
				<line fill="none" stroke="#8C7965" stroke-width="0.3723" stroke-miterlimit="10" x1="245.258" y1="0" x2="245.258" y2="26.769"/>
			<line fill="none" stroke="#8C7965" stroke-width="0.3723" stroke-miterlimit="10" x1="264.72" y1="0" x2="264.72" y2="26.831"/>
		</g>
	</g>
	<g>
		<rect x="45.777" y="187.647" fill="#EDAA00" width="9.71" height="21.353"/>
		<g>
			<path fill="#E75300" d="M50.001,182.538c-0.351,0.351-0.346,0.913,0,1.263c0.346,0.348,0.912,0.348,1.261,0
				c0.349-0.349,0.349-0.915,0-1.263C50.915,182.187,50.348,182.187,50.001,182.538L50.001,182.538L50.001,182.538z"/>
		</g>
		<g>
			<g>
				<path fill="#E75300" d="M55.484,197.316v-9.707H45.78v9.707H55.484z"/>
				<polygon fill="#FFFFFF" points="50.647,195.903 54.079,192.471 54.073,192.466 50.65,189.04 50.639,189.031 47.209,192.463 
					47.216,192.471 47.216,192.474 				"/>
			</g>
		</g>
		<g id="INSERT_70_">
			<g id="CIRCLE_70_">
				<path fill="#007481" d="M49.468,192.463c0,0.646,0.52,1.164,1.164,1.164c0.642,0,1.164-0.518,1.164-1.164
					c0-0.643-0.522-1.164-1.164-1.164C49.988,191.299,49.468,191.82,49.468,192.463L49.468,192.463L49.468,192.463z"/>
			</g>
		</g>
	</g>
	<g>
		<rect x="26.425" y="187.647" fill="#EDAA00" width="9.71" height="21.353"/>
		<g>
			<polygon fill="#007481" points="31.713,181.821 31.712,182.733 32.628,182.733 32.628,183.601 31.712,183.601 31.712,184.513 
				30.849,184.513 30.849,183.601 29.931,183.601 29.931,182.733 30.849,182.733 30.847,181.821 			"/>
		</g>
		<path fill="#8C7965" d="M36.132,197.316v-9.707h-9.704v9.707H36.132z"/>
		<g>
			<g>
				<g id="INSERT_20_">
					<g id="CIRCLE_20_">
						<path fill="#FFFFFF" d="M32.043,191.698c0.457,0.455,1.192,0.455,1.647,0c0.455-0.455,0.456-1.192,0-1.646
							c-0.455-0.453-1.192-0.453-1.647,0C31.589,190.506,31.59,191.243,32.043,191.698L32.043,191.698L32.043,191.698z"/>
					</g>
				</g>
				<g id="INSERT_19_">
					<g id="CIRCLE_19_">
						<path fill="#FFFFFF" d="M28.869,194.872c0.456,0.457,1.192,0.457,1.645,0c0.455-0.452,0.456-1.189,0-1.645
							c-0.453-0.456-1.191-0.456-1.645,0C28.414,193.682,28.415,194.42,28.869,194.872L28.869,194.872L28.869,194.872z"/>
					</g>
				</g>
			</g>
			<g>
				<g id="INSERT_18_">
					<g id="CIRCLE_18_">
						<path fill="#FFFFFF" d="M30.513,191.698c0.457-0.457,0.456-1.192,0-1.646c-0.452-0.453-1.189-0.456-1.646,0
							c-0.452,0.455-0.452,1.192,0,1.646C29.324,192.152,30.061,192.152,30.513,191.698L30.513,191.698L30.513,191.698z"/>
					</g>
				</g>
				<g id="INSERT_17_">
					<g id="CIRCLE_17_">
						<path fill="#FFFFFF" d="M33.69,194.872c0.456-0.455,0.455-1.189,0-1.645c-0.455-0.453-1.189-0.456-1.647,0
							c-0.453,0.456-0.453,1.193,0,1.645C32.498,195.329,33.235,195.329,33.69,194.872L33.69,194.872L33.69,194.872z"/>
					</g>
				</g>
			</g>
		</g>
	</g>
	<g>
		<rect x="65.129" y="187.647" fill="#EDAA00" width="9.709" height="21.353"/>
		<g>
			<polyline fill="#8E9090" points="69.981,181.578 71.575,183.171 69.981,184.757 68.392,183.171 			"/>
		</g>
		<g>
			<g>
				<path fill="#E75300" d="M74.838,197.316v-9.707h-9.707v9.707H74.838z"/>
				<polygon fill="#8C7965" points="70,195.903 73.432,192.471 73.428,192.466 70.002,189.04 69.993,189.031 66.561,192.463 
					66.571,192.471 66.569,192.474 				"/>
			</g>
		</g>
	</g>
	<g>
		<rect x="143.091" y="187.647" fill="#EDAA00" width="9.709" height="21.353"/>
		<g>
			<polyline fill="#8E9090" points="147.943,181.578 149.537,183.171 147.943,184.757 146.353,183.171 			"/>
		</g>
		<g>
			<g>
				<path fill="#E75300" d="M152.799,197.316v-9.707h-9.707v9.707H152.799z"/>
				<polygon fill="#8C7965" points="147.961,195.903 151.394,192.471 151.39,192.466 147.963,189.04 147.954,189.031 
					144.522,192.463 144.532,192.471 144.531,192.474 				"/>
			</g>
		</g>
	</g>
	<g>
		<rect x="84.703" y="187.647" fill="#EDAA00" width="9.709" height="21.353"/>
		<g>
			<path fill="#8C7965" d="M91.098,183.938c0.006-0.85-0.685-1.536-1.537-1.54c-0.855,0.003-1.544,0.693-1.544,1.543"/>
		</g>
		<path fill="#007481" d="M94.411,197.316v-9.707h-9.707v9.707H94.411z"/>
		<g>
			<g>
				<g id="INSERT_74_">
					<g id="CIRCLE_74_">
						<path fill="#FFFFFF" d="M90.322,191.698c0.456,0.455,1.19,0.455,1.645,0c0.456-0.455,0.456-1.192,0-1.646
							c-0.452-0.453-1.189-0.453-1.645,0C89.866,190.506,89.868,191.243,90.322,191.698L90.322,191.698L90.322,191.698z"/>
					</g>
				</g>
				<g id="INSERT_73_">
					<g id="CIRCLE_73_">
						<path fill="#FFFFFF" d="M87.146,194.872c0.457,0.457,1.192,0.457,1.645,0c0.456-0.452,0.459-1.189,0-1.645
							c-0.453-0.456-1.19-0.456-1.645,0C86.69,193.682,86.693,194.42,87.146,194.872L87.146,194.872L87.146,194.872z"/>
					</g>
				</g>
			</g>
			<g>
				<g id="INSERT_72_">
					<g id="CIRCLE_72_">
						<path fill="#FFFFFF" d="M88.791,191.698c0.456-0.457,0.456-1.192,0-1.646c-0.453-0.453-1.19-0.456-1.645,0
							c-0.453,0.455-0.453,1.192,0,1.646C87.601,192.152,88.338,192.152,88.791,191.698L88.791,191.698L88.791,191.698z"/>
					</g>
				</g>
				<g id="INSERT_71_">
					<g id="CIRCLE_71_">
						<path fill="#FFFFFF" d="M91.967,194.872c0.456-0.455,0.456-1.189,0-1.645c-0.452-0.453-1.189-0.456-1.645,0
							c-0.453,0.456-0.453,1.193,0,1.645C90.778,195.329,91.515,195.329,91.967,194.872L91.967,194.872L91.967,194.872z"/>
					</g>
				</g>
			</g>
		</g>
	</g>
	<g>
		<rect x="104.165" y="187.647" fill="#EDAA00" width="9.709" height="21.353"/>
		<g>
			<polygon fill="#007481" points="109.454,181.821 109.453,182.733 110.368,182.733 110.368,183.601 109.453,183.601 
				109.453,184.513 108.589,184.513 108.589,183.601 107.673,183.601 107.673,182.733 108.589,182.733 108.588,181.821 			"/>
		</g>
		<g>
			<g>
				<path fill="#E75300" d="M113.874,197.314v-9.707h-9.707v9.707H113.874z"/>
				<polygon fill="#FFFFFF" points="109.037,195.903 112.467,192.471 112.462,192.463 109.038,189.04 109.029,189.028 
					105.597,192.46 105.605,192.471 105.605,192.471 				"/>
			</g>
		</g>
		<g id="INSERT_75_">
			<g id="CIRCLE_75_">
				<path fill="#007481" d="M107.856,192.46c0,0.646,0.521,1.164,1.164,1.164c0.643,0,1.164-0.518,1.164-1.164
					c0-0.643-0.521-1.164-1.164-1.164C108.377,191.296,107.856,191.817,107.856,192.46L107.856,192.46L107.856,192.46z"/>
			</g>
		</g>
	</g>
	<g>
		<rect x="123.627" y="187.647" fill="#EDAA00" width="9.71" height="21.353"/>
		<g>
			<path fill="#E75300" d="M127.85,182.538c-0.351,0.351-0.345,0.913,0,1.263c0.348,0.348,0.913,0.348,1.261,0
				c0.349-0.349,0.349-0.915,0-1.263C128.764,182.187,128.198,182.187,127.85,182.538L127.85,182.538L127.85,182.538z"/>
		</g>
		<g>
			<g id="XMLID_4_">
				<path fill="#007481" d="M133.334,197.316v-9.707h-9.707v9.707H133.334z"/>
				<polygon fill="#EDAA00" points="126.066,194.899 130.92,194.899 130.92,194.891 130.92,190.048 130.92,190.035 126.066,190.035 
					126.066,190.048 126.066,190.048 				"/>
			</g>
		</g>
	</g>
	<g>
		<rect x="181.854" y="187.647" fill="#EDAA00" width="9.71" height="21.353"/>
		<g>
			<path fill="#E75300" d="M186.078,182.538c-0.351,0.351-0.346,0.913,0,1.263c0.346,0.348,0.912,0.348,1.261,0
				c0.349-0.349,0.349-0.915,0-1.263C186.991,182.187,186.424,182.187,186.078,182.538L186.078,182.538L186.078,182.538z"/>
		</g>
		<g>
			<g>
				<path fill="#E75300" d="M191.561,197.316v-9.707h-9.704v9.707H191.561z"/>
				<polygon fill="#FFFFFF" points="186.724,195.903 190.155,192.471 190.15,192.466 186.727,189.04 186.715,189.031 
					183.285,192.463 183.292,192.471 183.292,192.474 				"/>
			</g>
		</g>
		<g id="INSERT_37_">
			<g id="CIRCLE_37_">
				<path fill="#007481" d="M185.544,192.463c0,0.646,0.52,1.164,1.164,1.164c0.642,0,1.164-0.518,1.164-1.164
					c0-0.643-0.522-1.164-1.164-1.164C186.064,191.299,185.544,191.82,185.544,192.463L185.544,192.463L185.544,192.463z"/>
			</g>
		</g>
	</g>
	<g>
		<rect x="162.501" y="187.647" fill="#EDAA00" width="9.71" height="21.353"/>
		<g>
			<polygon fill="#007481" points="167.79,181.821 167.789,182.733 168.705,182.733 168.705,183.601 167.789,183.601 
				167.789,184.513 166.925,184.513 166.925,183.601 166.008,183.601 166.008,182.733 166.925,182.733 166.924,181.821 			"/>
		</g>
		<path fill="#8C7965" d="M172.208,197.316v-9.707h-9.704v9.707H172.208z"/>
		<g>
			<g>
				<g id="INSERT_36_">
					<g id="CIRCLE_36_">
						<path fill="#FFFFFF" d="M168.12,191.698c0.457,0.455,1.192,0.455,1.647,0c0.455-0.455,0.456-1.192,0-1.646
							c-0.455-0.453-1.192-0.453-1.647,0C167.665,190.506,167.667,191.243,168.12,191.698L168.12,191.698L168.12,191.698z"/>
					</g>
				</g>
				<g id="INSERT_35_">
					<g id="CIRCLE_35_">
						<path fill="#FFFFFF" d="M164.946,194.872c0.456,0.457,1.192,0.457,1.645,0c0.455-0.452,0.456-1.189,0-1.645
							c-0.453-0.456-1.191-0.456-1.645,0C164.49,193.682,164.491,194.42,164.946,194.872L164.946,194.872L164.946,194.872z"/>
					</g>
				</g>
			</g>
			<g>
				<g id="INSERT_34_">
					<g id="CIRCLE_34_">
						<path fill="#FFFFFF" d="M166.59,191.698c0.457-0.457,0.456-1.192,0-1.646c-0.452-0.453-1.189-0.456-1.646,0
							c-0.452,0.455-0.452,1.192,0,1.646C165.401,192.152,166.138,192.152,166.59,191.698L166.59,191.698L166.59,191.698z"/>
					</g>
				</g>
				<g id="INSERT_33_">
					<g id="CIRCLE_33_">
						<path fill="#FFFFFF" d="M169.766,194.872c0.456-0.455,0.455-1.189,0-1.645c-0.455-0.453-1.189-0.456-1.647,0
							c-0.453,0.456-0.453,1.193,0,1.645C168.574,195.329,169.312,195.329,169.766,194.872L169.766,194.872L169.766,194.872z"/>
					</g>
				</g>
			</g>
		</g>
	</g>
	<g>
		<rect x="201.206" y="187.647" fill="#EDAA00" width="9.709" height="21.353"/>
		<g>
			<polyline fill="#8E9090" points="206.058,181.578 207.652,183.171 206.058,184.757 204.468,183.171 			"/>
		</g>
		<g>
			<g>
				<path fill="#E75300" d="M210.914,197.316v-9.707h-9.707v9.707H210.914z"/>
				<polygon fill="#8C7965" points="206.076,195.903 209.509,192.471 209.505,192.466 206.079,189.04 206.069,189.031 
					202.637,192.463 202.647,192.471 202.646,192.474 				"/>
			</g>
		</g>
	</g>
	<g>
		<rect x="220.779" y="187.647" fill="#EDAA00" width="9.709" height="21.353"/>
		<g>
			<path fill="#8C7965" d="M227.174,183.938c0.006-0.85-0.685-1.536-1.537-1.54c-0.855,0.003-1.544,0.693-1.544,1.543"/>
		</g>
		<path fill="#007481" d="M230.488,197.316v-9.707h-9.707v9.707H230.488z"/>
		<g>
			<g>
				<g id="INSERT_32_">
					<g id="CIRCLE_32_">
						<path fill="#FFFFFF" d="M226.398,191.698c0.456,0.455,1.19,0.455,1.645,0c0.456-0.455,0.456-1.192,0-1.646
							c-0.452-0.453-1.189-0.453-1.645,0C225.942,190.506,225.945,191.243,226.398,191.698L226.398,191.698L226.398,191.698z"/>
					</g>
				</g>
				<g id="INSERT_31_">
					<g id="CIRCLE_31_">
						<path fill="#FFFFFF" d="M223.223,194.872c0.457,0.457,1.192,0.457,1.645,0c0.456-0.452,0.459-1.189,0-1.645
							c-0.453-0.456-1.19-0.456-1.645,0C222.767,193.682,222.77,194.42,223.223,194.872L223.223,194.872L223.223,194.872z"/>
					</g>
				</g>
			</g>
			<g>
				<g id="INSERT_30_">
					<g id="CIRCLE_30_">
						<path fill="#FFFFFF" d="M224.868,191.698c0.456-0.457,0.456-1.192,0-1.646c-0.453-0.453-1.19-0.456-1.645,0
							c-0.453,0.455-0.453,1.192,0,1.646C223.677,192.152,224.415,192.152,224.868,191.698L224.868,191.698L224.868,191.698z"/>
					</g>
				</g>
				<g id="INSERT_29_">
					<g id="CIRCLE_29_">
						<path fill="#FFFFFF" d="M228.043,194.872c0.456-0.455,0.456-1.189,0-1.645c-0.452-0.453-1.189-0.456-1.645,0
							c-0.453,0.456-0.453,1.193,0,1.645C226.854,195.329,227.591,195.329,228.043,194.872L228.043,194.872L228.043,194.872z"/>
					</g>
				</g>
			</g>
		</g>
	</g>
	<g>
		<rect x="240.242" y="187.647" fill="#EDAA00" width="9.709" height="21.353"/>
		<g>
			<polygon fill="#007481" points="245.531,181.821 245.529,182.733 246.444,182.733 246.444,183.601 245.529,183.601 
				245.529,184.513 244.666,184.513 244.666,183.601 243.75,183.601 243.75,182.733 244.666,182.733 244.665,181.821 			"/>
		</g>
		<g>
			<g>
				<path fill="#E75300" d="M249.951,197.314v-9.707h-9.707v9.707H249.951z"/>
				<polygon fill="#FFFFFF" points="245.114,195.903 248.544,192.471 248.538,192.463 245.115,189.04 245.105,189.028 
					241.674,192.46 241.682,192.471 241.682,192.471 				"/>
			</g>
		</g>
		<g id="INSERT_28_">
			<g id="CIRCLE_28_">
				<path fill="#007481" d="M243.933,192.46c0,0.646,0.521,1.164,1.164,1.164c0.643,0,1.164-0.518,1.164-1.164
					c0-0.643-0.521-1.164-1.164-1.164C244.454,191.296,243.933,191.817,243.933,192.46L243.933,192.46L243.933,192.46z"/>
			</g>
		</g>
	</g>
	<g>
		<rect x="259.704" y="187.647" fill="#EDAA00" width="9.71" height="21.353"/>
		<g>
			<path fill="#E75300" d="M263.927,182.538c-0.351,0.351-0.345,0.913,0,1.263c0.348,0.348,0.913,0.348,1.261,0
				c0.349-0.349,0.349-0.915,0-1.263C264.84,182.187,264.275,182.187,263.927,182.538L263.927,182.538L263.927,182.538z"/>
		</g>
		<g>
			<g id="XMLID_2_">
				<path fill="#007481" d="M269.411,197.316v-9.707h-9.707v9.707H269.411z"/>
				<polygon fill="#EDAA00" points="262.143,194.899 266.997,194.899 266.997,194.891 266.997,190.048 266.997,190.035 
					262.143,190.035 262.143,190.048 262.143,190.048 				"/>
			</g>
		</g>
	</g>
</g>
<g>
	<g>
		<path fill="#00969B" d="M109.933,57.915c0-7.7-6.493-13.97-14.484-13.97c-0.733,0-1.487,0.053-2.223,0.157
			c-6.21,0.884-10.364,5.349-12.692,8.774c-2.328-3.424-6.484-7.89-12.687-8.774c-0.742-0.103-1.489-0.157-2.227-0.157
			c-7.988,0-14.488,6.271-14.488,13.97c0,7.704,6.5,13.972,14.484,13.972c0.738,0,1.489-0.056,2.232-0.157
			c6.203-0.89,10.359-5.353,12.687-8.785c2.328,3.432,6.482,7.895,12.692,8.785c0.735,0.101,1.489,0.157,2.232,0.157
			C103.44,71.888,109.933,65.619,109.933,57.915z M67.147,66.826c-0.514,0.074-1.025,0.117-1.532,0.117
			c-5.257,0-9.532-4.052-9.532-9.027c0-4.972,4.275-9.023,9.536-9.023c0.505,0,1.017,0.04,1.528,0.112
			c5.851,0.837,9.428,6.603,10.642,8.911C76.571,60.23,72.992,65.994,67.147,66.826z M83.288,57.915
			c1.209-2.312,4.791-8.074,10.633-8.911c0.511-0.071,1.029-0.112,1.527-0.112c5.259,0,9.532,4.05,9.532,9.023
			c0,4.975-4.273,9.027-9.523,9.027c-0.505,0-1.025-0.042-1.536-0.117C88.077,65.994,84.497,60.228,83.288,57.915z"/>
		<rect x="61.627" y="56.554" fill="#00969B" width="8.7" height="2.799"/>
		<polygon fill="#00969B" points="96.415,59.353 99.36,59.353 99.36,56.554 96.415,56.554 96.415,53.603 93.61,53.603 93.61,56.554 
			90.66,56.554 90.66,59.353 93.61,59.353 93.61,62.304 96.415,62.304 		"/>
		<g>
			<path fill="#00969B" d="M110.973,44.497c-0.108-0.251-0.258-0.471-0.437-0.65c-0.178-0.18-0.393-0.325-0.635-0.433
				c-0.247-0.108-0.509-0.16-0.792-0.16c-0.282,0-0.55,0.052-0.794,0.16c-0.244,0.108-0.458,0.253-0.637,0.433
				c-0.179,0.179-0.327,0.399-0.435,0.65c-0.105,0.249-0.162,0.518-0.162,0.814c0,0.28,0.056,0.554,0.162,0.805
				c0.108,0.261,0.256,0.476,0.435,0.66c0.179,0.184,0.393,0.328,0.637,0.433c0.244,0.11,0.511,0.164,0.794,0.164
				c0.282,0,0.545-0.054,0.792-0.164c0.242-0.105,0.457-0.249,0.635-0.433c0.179-0.184,0.33-0.399,0.437-0.66
				c0.106-0.251,0.159-0.525,0.159-0.805C111.132,45.015,111.079,44.746,110.973,44.497z M110.524,45.937
				c-0.078,0.193-0.192,0.359-0.336,0.502c-0.146,0.146-0.307,0.26-0.489,0.348c-0.18,0.083-0.375,0.128-0.59,0.128
				c-0.215,0-0.417-0.045-0.601-0.128c-0.193-0.087-0.35-0.202-0.491-0.348c-0.137-0.144-0.247-0.31-0.328-0.502
				c-0.078-0.193-0.121-0.4-0.121-0.626c0-0.224,0.043-0.435,0.121-0.63c0.081-0.202,0.191-0.368,0.328-0.514
				c0.142-0.146,0.298-0.258,0.491-0.339c0.184-0.079,0.386-0.121,0.601-0.121c0.215,0,0.41,0.042,0.59,0.121
				c0.182,0.08,0.343,0.193,0.489,0.339c0.144,0.146,0.258,0.312,0.336,0.514c0.083,0.195,0.126,0.406,0.126,0.63
				C110.65,45.537,110.608,45.744,110.524,45.937z"/>
			<path fill="#00969B" d="M109.549,45.51c0.115-0.054,0.202-0.139,0.263-0.24c0.065-0.101,0.096-0.215,0.096-0.339
				c0-0.193-0.07-0.361-0.205-0.502c-0.139-0.144-0.37-0.211-0.697-0.211c-0.126,0-0.235,0-0.332,0.009
				c-0.099,0.005-0.191,0.013-0.282,0.022v2.028h0.511v-0.668h0.206l0.357,0.668h0.577L109.549,45.51z M109.04,45.237
				c-0.069,0-0.119-0.005-0.153-0.016v-0.545c0.034-0.009,0.089-0.02,0.166-0.02c0.218,0,0.327,0.101,0.327,0.294
				S109.269,45.237,109.04,45.237z"/>
		</g>
	</g>
	<rect x="117.31" y="45.84" fill="#00979D" width="127.559" height="24.468"/>
	<g>
		<path fill="#FFFFFF" d="M133.63,51.039v1.51h-7.77v4.576h7.036v1.489h-7.036v4.922h7.77v1.532h-9.519v-14.03H133.63z"/>
		<path fill="#FFFFFF" d="M136.605,51.039h4.663c4.943,0,6.367,3.259,6.367,6.907c0,3.799-1.188,7.123-6.476,7.123h-4.554V51.039z
			 M138.353,52.549v10.987h3c3.886,0,4.425-2.461,4.425-5.482c0-2.849-0.842-5.505-4.511-5.505H138.353z"/>
		<path fill="#FFFFFF" d="M158.056,51.039h1.706v8.785c0,3.237-1.23,5.46-5.159,5.46c-3.863,0-5.094-1.899-5.094-5.288v-8.957h1.727
			v8.763c0,3.044,0.972,4.015,3.432,4.015c2.568,0,3.388-1.209,3.388-4.167V51.039z"/>
		<path fill="#FFFFFF" d="M172.859,64.421c-1.1,0.583-2.569,0.863-4.08,0.863c-3.863,0-6.475-2.093-6.475-7.144
			c0-4.706,2.698-7.296,6.669-7.296c1.425,0,2.893,0.345,3.691,0.842l-0.583,1.619c-0.798-0.649-2.05-0.951-3.152-0.951
			c-3.194,0-4.769,2.072-4.769,5.742c0,3.799,1.576,5.698,4.748,5.698c1.402,0,2.849-0.41,3.518-0.842L172.859,64.421z"/>
		<path fill="#FFFFFF" d="M174.69,65.068l4.899-14.03h1.857l4.92,14.03h-1.834l-1.251-3.712h-5.633l-1.209,3.712H174.69z
			 M180.453,52.873l-2.332,7.036h4.684L180.453,52.873z"/>
		<path fill="#FFFFFF" d="M199.206,52.549h-4.835v12.519h-1.748V52.549h-4.857v-1.51h11.44V52.549z"/>
		<path fill="#FFFFFF" d="M201.663,63.536h3.884V52.571h-3.884v-1.532h9.67v1.532h-4.037v10.965h4.037v1.532h-9.67V63.536z"/>
		<path fill="#FFFFFF" d="M225.25,58.074c0,4.167-2.007,7.209-5.935,7.209c-4.144,0-5.807-2.763-5.807-7.187
			c0-4.339,1.878-7.252,5.893-7.252C223.502,50.844,225.25,53.369,225.25,58.074z M223.395,58.074c0-3.669-0.885-5.72-3.993-5.72
			c-3.087,0-4.037,1.943-4.037,5.742c0,3.561,0.777,5.677,3.95,5.677C222.358,63.773,223.395,61.485,223.395,58.074z"/>
		<path fill="#FFFFFF" d="M228.787,65.068h-1.662v-14.03h1.921l6.842,11.246V51.039h1.641v14.03h-1.792l-6.949-11.461V65.068z"/>
	</g>
</g>
</svg>
